# Blender 5.2.0 LTS
# www.blender.org
o Lamp_Shade
v -0.210000 2.040000 -1.450000
v -0.210000 2.260000 -1.450000
v 0.210000 2.040000 -1.450000
v 0.210000 2.260000 -1.450000
v -0.210000 2.040000 1.450000
v -0.210000 2.260000 1.450000
v 0.210000 2.040000 1.450000
v 0.210000 2.260000 1.450000
vn -0.0000 -0.0000 -1.0000
vn 1.0000 -0.0000 -0.0000
vn -0.0000 -0.0000 1.0000
vn -1.0000 -0.0000 -0.0000
vn -0.0000 -1.0000 -0.0000
vn -0.0000 1.0000 -0.0000
vt 0.625000 0.000000
vt 0.375000 0.250000
vt 0.375000 0.000000
vt 0.625000 0.250000
vt 0.375000 0.500000
vt 0.625000 0.500000
vt 0.375000 0.750000
vt 0.625000 0.750000
vt 0.375000 1.000000
vt 0.125000 0.750000
vt 0.125000 0.500000
vt 0.875000 0.500000
vt 0.625000 1.000000
vt 0.875000 0.750000
s 0
f 2/1/1 3/2/1 1/3/1
f 4/4/2 7/5/2 3/2/2
f 8/6/3 5/7/3 7/5/3
f 6/8/4 1/9/4 5/7/4
f 7/5/5 1/10/5 3/11/5
f 4/12/6 6/8/6 8/6/6
f 2/1/1 4/4/1 3/2/1
f 4/4/2 8/6/2 7/5/2
f 8/6/3 6/8/3 5/7/3
f 6/8/4 2/13/4 1/9/4
f 7/5/5 5/7/5 1/10/5
f 4/12/6 2/14/6 6/8/6
o Lamp_Emit
v 0.180000 2.040000 -1.400000
v 0.180000 2.040000 1.400000
v -0.180000 2.040000 -1.400000
v -0.180000 2.040000 1.400000
vn -0.0000 -1.0000 -0.0000
vt 1.000000 0.000000
vt 0.000000 1.000000
vt 0.000000 0.000000
vt 1.000000 1.000000
s 0
f 10/15/7 11/16/7 9/17/7
f 10/15/7 12/18/7 11/16/7
o Lamp_Rod_0
v 0.012000 2.260000 -1.100000
v 0.012000 7.000000 -1.100000
v 0.011769 2.260000 -1.097659
v 0.011769 7.000000 -1.097659
v 0.011087 2.260000 -1.095408
v 0.011087 7.000000 -1.095408
v 0.009978 2.260000 -1.093333
v 0.009978 7.000000 -1.093333
v 0.008485 2.260000 -1.091515
v 0.008485 7.000000 -1.091515
v 0.006667 2.260000 -1.090022
v 0.006667 7.000000 -1.090022
v 0.004592 2.260000 -1.088913
v 0.004592 7.000000 -1.088913
v 0.002341 2.260000 -1.088231
v 0.002341 7.000000 -1.088231
v 0.000000 2.260000 -1.088000
v 0.000000 7.000000 -1.088000
v -0.002341 2.260000 -1.088231
v -0.002341 7.000000 -1.088231
v -0.004592 2.260000 -1.088913
v -0.004592 7.000000 -1.088913
v -0.006667 2.260000 -1.090022
v -0.006667 7.000000 -1.090022
v -0.008485 2.260000 -1.091515
v -0.008485 7.000000 -1.091515
v -0.009978 2.260000 -1.093333
v -0.009978 7.000000 -1.093333
v -0.011087 2.260000 -1.095408
v -0.011087 7.000000 -1.095408
v -0.011769 2.260000 -1.097659
v -0.011769 7.000000 -1.097659
v -0.012000 2.260000 -1.100000
v -0.012000 7.000000 -1.100000
v -0.011769 2.260000 -1.102341
v -0.011769 7.000000 -1.102341
v -0.011087 2.260000 -1.104592
v -0.011087 7.000000 -1.104592
v -0.009978 2.260000 -1.106667
v -0.009978 7.000000 -1.106667
v -0.008485 2.260000 -1.108485
v -0.008485 7.000000 -1.108485
v -0.006667 2.260000 -1.109978
v -0.006667 7.000000 -1.109978
v -0.004592 2.260000 -1.111087
v -0.004592 7.000000 -1.111087
v -0.002341 2.260000 -1.111769
v -0.002341 7.000000 -1.111769
v 0.000000 2.260000 -1.112000
v 0.000000 7.000000 -1.112000
v 0.002341 2.260000 -1.111769
v 0.002341 7.000000 -1.111769
v 0.004592 2.260000 -1.111087
v 0.004592 7.000000 -1.111087
v 0.006667 2.260000 -1.109978
v 0.006667 7.000000 -1.109978
v 0.008485 2.260000 -1.108485
v 0.008485 7.000000 -1.108485
v 0.009978 2.260000 -1.106667
v 0.009978 7.000000 -1.106667
v 0.011087 2.260000 -1.104592
v 0.011087 7.000000 -1.104592
v 0.011769 2.260000 -1.102341
v 0.011769 7.000000 -1.102341
vn 0.9952 -0.0000 0.0980
vn 0.9569 -0.0000 0.2903
vn 0.8819 -0.0000 0.4714
vn 0.7730 -0.0000 0.6344
vn 0.6344 -0.0000 0.7730
vn 0.4714 -0.0000 0.8819
vn 0.2903 -0.0000 0.9569
vn 0.0980 -0.0000 0.9952
vn -0.0980 -0.0000 0.9952
vn -0.2903 -0.0000 0.9569
vn -0.4714 -0.0000 0.8819
vn -0.6344 -0.0000 0.7730
vn -0.7730 -0.0000 0.6344
vn -0.8819 -0.0000 0.4714
vn -0.9569 -0.0000 0.2903
vn -0.9952 -0.0000 0.0980
vn -0.9952 -0.0000 -0.0980
vn -0.9569 -0.0000 -0.2903
vn -0.8819 -0.0000 -0.4714
vn -0.7730 -0.0000 -0.6344
vn -0.6344 -0.0000 -0.7730
vn -0.4714 -0.0000 -0.8819
vn -0.2903 -0.0000 -0.9569
vn -0.0980 -0.0000 -0.9952
vn 0.0980 -0.0000 -0.9952
vn 0.2903 -0.0000 -0.9569
vn 0.4714 -0.0000 -0.8819
vn 0.6344 -0.0000 -0.7730
vn 0.7730 -0.0000 -0.6344
vn 0.8819 -0.0000 -0.4714
vn -0.0000 1.0000 -0.0000
vn 0.9569 -0.0000 -0.2903
vn 0.9952 -0.0000 -0.0980
vn -0.0000 -1.0000 -0.0000
vn -0.0000 1.0000 -0.0001
vn -0.0000 1.0000 0.0001
vn -0.0000 -1.0000 -0.0005
vn -0.0000 -1.0000 -0.0011
vn -0.0000 -1.0000 0.0005
vn -0.0000 -1.0000 0.0011
vn -0.0000 -1.0000 0.0006
vn -0.0000 -1.0000 -0.0001
vn -0.0000 -1.0000 -0.0006
vn -0.0000 -1.0000 0.0001
vt 1.000000 1.000000
vt 0.968750 0.500000
vt 1.000000 0.500000
vt 0.968750 1.000000
vt 0.937500 0.500000
vt 0.937500 1.000000
vt 0.906250 0.500000
vt 0.906250 1.000000
vt 0.875000 0.500000
vt 0.875000 1.000000
vt 0.843750 0.500000
vt 0.843750 1.000000
vt 0.812500 0.500000
vt 0.812500 1.000000
vt 0.781250 0.500000
vt 0.781250 1.000000
vt 0.750000 0.500000
vt 0.750000 1.000000
vt 0.718750 0.500000
vt 0.718750 1.000000
vt 0.687500 0.500000
vt 0.687500 1.000000
vt 0.656250 0.500000
vt 0.656250 1.000000
vt 0.625000 0.500000
vt 0.625000 1.000000
vt 0.593750 0.500000
vt 0.593750 1.000000
vt 0.562500 0.500000
vt 0.562500 1.000000
vt 0.531250 0.500000
vt 0.531250 1.000000
vt 0.500000 0.500000
vt 0.500000 1.000000
vt 0.468750 0.500000
vt 0.468750 1.000000
vt 0.437500 0.500000
vt 0.437500 1.000000
vt 0.406250 0.500000
vt 0.406250 1.000000
vt 0.375000 0.500000
vt 0.375000 1.000000
vt 0.343750 0.500000
vt 0.343750 1.000000
vt 0.312500 0.500000
vt 0.312500 1.000000
vt 0.281250 0.500000
vt 0.281250 1.000000
vt 0.250000 0.500000
vt 0.250000 1.000000
vt 0.218750 0.500000
vt 0.218750 1.000000
vt 0.187500 0.500000
vt 0.187500 1.000000
vt 0.156250 0.500000
vt 0.156250 1.000000
vt 0.125000 0.500000
vt 0.125000 1.000000
vt 0.093750 0.500000
vt 0.093750 1.000000
vt 0.062500 0.500000
vt 0.158156 0.028269
vt 0.471731 0.158156
vt 0.341844 0.471731
vt 0.062500 1.000000
vt 0.031250 0.500000
vt 0.031250 1.000000
vt 0.000000 0.500000
vt 0.796822 0.014612
vt 0.514612 0.203178
vt 0.703178 0.485388
vt 0.296822 0.485388
vt 0.250000 0.490000
vt 0.203178 0.485388
vt 0.158156 0.471731
vt 0.116663 0.449553
vt 0.080294 0.419706
vt 0.050447 0.383337
vt 0.028269 0.341844
vt 0.014612 0.296822
vt 0.010000 0.250000
vt 0.014612 0.203178
vt 0.028269 0.158156
vt 0.050447 0.116663
vt 0.080294 0.080294
vt 0.116663 0.050447
vt 0.203178 0.014612
vt 0.250000 0.010000
vt 0.296822 0.014612
vt 0.341844 0.028269
vt 0.383337 0.050447
vt 0.419706 0.080294
vt 0.449553 0.116663
vt 0.485388 0.203178
vt 0.490000 0.250000
vt 0.485388 0.296822
vt 0.471731 0.341844
vt 0.449553 0.383337
vt 0.419706 0.419706
vt 0.383337 0.449553
vt 0.000000 1.000000
vt 0.750000 0.490000
vt 0.796822 0.485388
vt 0.841844 0.471731
vt 0.883337 0.449553
vt 0.919706 0.419706
vt 0.949553 0.383337
vt 0.971731 0.341844
vt 0.985388 0.296822
vt 0.990000 0.250000
vt 0.985388 0.203178
vt 0.971731 0.158156
vt 0.949553 0.116663
vt 0.919706 0.080294
vt 0.883337 0.050447
vt 0.841844 0.028269
vt 0.750000 0.010000
vt 0.703178 0.014612
vt 0.658156 0.028269
vt 0.616663 0.050447
vt 0.580294 0.080294
vt 0.550447 0.116663
vt 0.528269 0.158156
vt 0.510000 0.250000
vt 0.514612 0.296822
vt 0.528269 0.341844
vt 0.550447 0.383337
vt 0.580294 0.419706
vt 0.616663 0.449553
vt 0.658156 0.471731
s 0
f 14/19/8 15/20/8 13/21/8
f 16/22/9 17/23/9 15/20/9
f 18/24/10 19/25/10 17/23/10
f 20/26/11 21/27/11 19/25/11
f 22/28/12 23/29/12 21/27/12
f 24/30/13 25/31/13 23/29/13
f 26/32/14 27/33/14 25/31/14
f 28/34/15 29/35/15 27/33/15
f 30/36/16 31/37/16 29/35/16
f 32/38/17 33/39/17 31/37/17
f 34/40/18 35/41/18 33/39/18
f 36/42/19 37/43/19 35/41/19
f 38/44/20 39/45/20 37/43/20
f 40/46/21 41/47/21 39/45/21
f 42/48/22 43/49/22 41/47/22
f 44/50/23 45/51/23 43/49/23
f 46/52/24 47/53/24 45/51/24
f 48/54/25 49/55/25 47/53/25
f 50/56/26 51/57/26 49/55/26
f 52/58/27 53/59/27 51/57/27
f 54/60/28 55/61/28 53/59/28
f 56/62/29 57/63/29 55/61/29
f 58/64/30 59/65/30 57/63/30
f 60/66/31 61/67/31 59/65/31
f 62/68/32 63/69/32 61/67/32
f 64/70/33 65/71/33 63/69/33
f 66/72/34 67/73/34 65/71/34
f 68/74/35 69/75/35 67/73/35
f 70/76/36 71/77/36 69/75/36
f 72/78/37 73/79/37 71/77/37
f 50/80/38 34/81/38 18/82/38
f 74/83/39 75/84/39 73/79/39
f 76/85/40 13/86/40 75/84/40
f 43/87/41 59/88/41 75/89/41
f 14/19/8 16/22/8 15/20/8
f 16/22/9 18/24/9 17/23/9
f 18/24/10 20/26/10 19/25/10
f 20/26/11 22/28/11 21/27/11
f 22/28/12 24/30/12 23/29/12
f 24/30/13 26/32/13 25/31/13
f 26/32/14 28/34/14 27/33/14
f 28/34/15 30/36/15 29/35/15
f 30/36/16 32/38/16 31/37/16
f 32/38/17 34/40/17 33/39/17
f 34/40/18 36/42/18 35/41/18
f 36/42/19 38/44/19 37/43/19
f 38/44/20 40/46/20 39/45/20
f 40/46/21 42/48/21 41/47/21
f 42/48/22 44/50/22 43/49/22
f 44/50/23 46/52/23 45/51/23
f 46/52/24 48/54/24 47/53/24
f 48/54/25 50/56/25 49/55/25
f 50/56/26 52/58/26 51/57/26
f 52/58/27 54/60/27 53/59/27
f 54/60/28 56/62/28 55/61/28
f 56/62/29 58/64/29 57/63/29
f 58/64/30 60/66/30 59/65/30
f 60/66/31 62/68/31 61/67/31
f 62/68/32 64/70/32 63/69/32
f 64/70/33 66/72/33 65/71/33
f 66/72/34 68/74/34 67/73/34
f 68/74/35 70/76/35 69/75/35
f 70/76/36 72/78/36 71/77/36
f 72/78/37 74/83/37 73/79/37
f 18/82/42 16/90/42 14/91/42
f 14/91/38 76/92/38 74/93/38
f 74/93/38 72/94/38 70/95/38
f 70/95/38 68/96/38 66/97/38
f 66/97/38 64/98/38 62/99/38
f 62/99/38 60/100/38 58/101/38
f 58/101/38 56/102/38 54/103/38
f 54/103/38 52/104/38 50/80/38
f 50/80/43 48/105/43 46/106/43
f 46/106/38 44/107/38 42/108/38
f 42/108/38 40/109/38 38/110/38
f 38/110/38 36/111/38 34/81/38
f 34/81/38 32/112/38 30/113/38
f 30/113/38 28/114/38 26/115/38
f 26/115/38 24/116/38 22/117/38
f 22/117/38 20/118/38 18/82/38
f 18/82/38 14/91/38 74/93/38
f 74/93/38 70/95/38 66/97/38
f 66/97/38 62/99/38 58/101/38
f 58/101/38 54/103/38 50/80/38
f 50/80/38 46/106/38 42/108/38
f 42/108/38 38/110/38 34/81/38
f 34/81/38 30/113/38 26/115/38
f 26/115/38 22/117/38 18/82/38
f 18/82/38 74/93/38 66/97/38
f 66/97/38 58/101/38 50/80/38
f 50/80/38 42/108/38 34/81/38
f 34/81/38 26/115/38 18/82/38
f 18/82/38 66/97/38 50/80/38
f 74/83/39 76/85/39 75/84/39
f 76/85/40 14/119/40 13/86/40
f 75/89/41 13/120/41 15/121/41
f 15/121/41 17/122/41 19/123/41
f 19/123/44 21/124/44 23/125/44
f 23/125/45 25/126/45 27/127/45
f 27/127/41 29/128/41 31/129/41
f 31/129/45 33/130/45 35/131/45
f 35/131/44 37/132/44 39/133/44
f 39/133/41 41/134/41 43/87/41
f 43/87/41 45/135/41 47/136/41
f 47/136/41 49/137/41 51/138/41
f 51/138/46 53/139/46 55/140/46
f 55/140/47 57/141/47 59/88/47
f 59/88/41 61/142/41 63/143/41
f 63/143/47 65/144/47 67/145/47
f 67/145/46 69/146/46 71/147/46
f 71/147/41 73/148/41 75/89/41
f 75/89/41 15/121/41 19/123/41
f 19/123/41 23/125/41 27/127/41
f 27/127/48 31/129/48 35/131/48
f 35/131/49 39/133/49 43/87/49
f 43/87/41 47/136/41 51/138/41
f 51/138/41 55/140/41 59/88/41
f 59/88/50 63/143/50 67/145/50
f 67/145/51 71/147/51 75/89/51
f 75/89/41 19/123/41 27/127/41
f 27/127/41 35/131/41 43/87/41
f 43/87/41 51/138/41 59/88/41
f 59/88/41 67/145/41 75/89/41
f 75/89/41 27/127/41 43/87/41
o Lamp_Rod_1
v 0.012000 2.260000 1.100000
v 0.012000 7.000000 1.100000
v 0.011769 2.260000 1.102341
v 0.011769 7.000000 1.102341
v 0.011087 2.260000 1.104592
v 0.011087 7.000000 1.104592
v 0.009978 2.260000 1.106667
v 0.009978 7.000000 1.106667
v 0.008485 2.260000 1.108485
v 0.008485 7.000000 1.108485
v 0.006667 2.260000 1.109978
v 0.006667 7.000000 1.109978
v 0.004592 2.260000 1.111087
v 0.004592 7.000000 1.111087
v 0.002341 2.260000 1.111769
v 0.002341 7.000000 1.111769
v 0.000000 2.260000 1.112000
v 0.000000 7.000000 1.112000
v -0.002341 2.260000 1.111769
v -0.002341 7.000000 1.111769
v -0.004592 2.260000 1.111087
v -0.004592 7.000000 1.111087
v -0.006667 2.260000 1.109978
v -0.006667 7.000000 1.109978
v -0.008485 2.260000 1.108485
v -0.008485 7.000000 1.108485
v -0.009978 2.260000 1.106667
v -0.009978 7.000000 1.106667
v -0.011087 2.260000 1.104592
v -0.011087 7.000000 1.104592
v -0.011769 2.260000 1.102341
v -0.011769 7.000000 1.102341
v -0.012000 2.260000 1.100000
v -0.012000 7.000000 1.100000
v -0.011769 2.260000 1.097659
v -0.011769 7.000000 1.097659
v -0.011087 2.260000 1.095408
v -0.011087 7.000000 1.095408
v -0.009978 2.260000 1.093333
v -0.009978 7.000000 1.093333
v -0.008485 2.260000 1.091515
v -0.008485 7.000000 1.091515
v -0.006667 2.260000 1.090022
v -0.006667 7.000000 1.090022
v -0.004592 2.260000 1.088913
v -0.004592 7.000000 1.088913
v -0.002341 2.260000 1.088231
v -0.002341 7.000000 1.088231
v 0.000000 2.260000 1.088000
v 0.000000 7.000000 1.088000
v 0.002341 2.260000 1.088231
v 0.002341 7.000000 1.088231
v 0.004592 2.260000 1.088913
v 0.004592 7.000000 1.088913
v 0.006667 2.260000 1.090022
v 0.006667 7.000000 1.090022
v 0.008485 2.260000 1.091515
v 0.008485 7.000000 1.091515
v 0.009978 2.260000 1.093333
v 0.009978 7.000000 1.093333
v 0.011087 2.260000 1.095408
v 0.011087 7.000000 1.095408
v 0.011769 2.260000 1.097659
v 0.011769 7.000000 1.097659
vn 0.9952 -0.0000 0.0980
vn 0.9569 -0.0000 0.2903
vn 0.8819 -0.0000 0.4714
vn 0.7730 -0.0000 0.6344
vn 0.6344 -0.0000 0.7730
vn 0.4714 -0.0000 0.8819
vn 0.2903 -0.0000 0.9569
vn 0.0980 -0.0000 0.9952
vn -0.0980 -0.0000 0.9952
vn -0.2903 -0.0000 0.9569
vn -0.4714 -0.0000 0.8819
vn -0.6344 -0.0000 0.7730
vn -0.7730 -0.0000 0.6344
vn -0.8819 -0.0000 0.4714
vn -0.9569 -0.0000 0.2903
vn -0.9952 -0.0000 0.0980
vn -0.9952 -0.0000 -0.0980
vn -0.9569 -0.0000 -0.2903
vn -0.8819 -0.0000 -0.4714
vn -0.7730 -0.0000 -0.6344
vn -0.6344 -0.0000 -0.7730
vn -0.4714 -0.0000 -0.8819
vn -0.2903 -0.0000 -0.9569
vn -0.0980 -0.0000 -0.9952
vn 0.0980 -0.0000 -0.9952
vn 0.2903 -0.0000 -0.9569
vn 0.4714 -0.0000 -0.8819
vn 0.6344 -0.0000 -0.7730
vn 0.7730 -0.0000 -0.6344
vn 0.8819 -0.0000 -0.4714
vn -0.0000 1.0000 -0.0000
vn 0.9569 -0.0000 -0.2903
vn 0.9952 -0.0000 -0.0980
vn -0.0000 -1.0000 -0.0000
vn -0.0000 1.0000 -0.0001
vn -0.0000 1.0000 0.0001
vn -0.0000 -1.0000 -0.0005
vn -0.0000 -1.0000 -0.0011
vn -0.0000 -1.0000 0.0005
vn -0.0000 -1.0000 0.0011
vn -0.0000 -1.0000 0.0006
vn -0.0000 -1.0000 -0.0001
vn -0.0000 -1.0000 -0.0006
vn -0.0000 -1.0000 0.0001
vt 1.000000 1.000000
vt 0.968750 0.500000
vt 1.000000 0.500000
vt 0.968750 1.000000
vt 0.937500 0.500000
vt 0.937500 1.000000
vt 0.906250 0.500000
vt 0.906250 1.000000
vt 0.875000 0.500000
vt 0.875000 1.000000
vt 0.843750 0.500000
vt 0.843750 1.000000
vt 0.812500 0.500000
vt 0.812500 1.000000
vt 0.781250 0.500000
vt 0.781250 1.000000
vt 0.750000 0.500000
vt 0.750000 1.000000
vt 0.718750 0.500000
vt 0.718750 1.000000
vt 0.687500 0.500000
vt 0.687500 1.000000
vt 0.656250 0.500000
vt 0.656250 1.000000
vt 0.625000 0.500000
vt 0.625000 1.000000
vt 0.593750 0.500000
vt 0.593750 1.000000
vt 0.562500 0.500000
vt 0.562500 1.000000
vt 0.531250 0.500000
vt 0.531250 1.000000
vt 0.500000 0.500000
vt 0.500000 1.000000
vt 0.468750 0.500000
vt 0.468750 1.000000
vt 0.437500 0.500000
vt 0.437500 1.000000
vt 0.406250 0.500000
vt 0.406250 1.000000
vt 0.375000 0.500000
vt 0.375000 1.000000
vt 0.343750 0.500000
vt 0.343750 1.000000
vt 0.312500 0.500000
vt 0.312500 1.000000
vt 0.281250 0.500000
vt 0.281250 1.000000
vt 0.250000 0.500000
vt 0.250000 1.000000
vt 0.218750 0.500000
vt 0.218750 1.000000
vt 0.187500 0.500000
vt 0.187500 1.000000
vt 0.156250 0.500000
vt 0.156250 1.000000
vt 0.125000 0.500000
vt 0.125000 1.000000
vt 0.093750 0.500000
vt 0.093750 1.000000
vt 0.062500 0.500000
vt 0.158156 0.028269
vt 0.471731 0.158156
vt 0.341844 0.471731
vt 0.062500 1.000000
vt 0.031250 0.500000
vt 0.031250 1.000000
vt 0.000000 0.500000
vt 0.796822 0.014612
vt 0.514612 0.203178
vt 0.703178 0.485388
vt 0.296822 0.485388
vt 0.250000 0.490000
vt 0.203178 0.485388
vt 0.158156 0.471731
vt 0.116663 0.449553
vt 0.080294 0.419706
vt 0.050447 0.383337
vt 0.028269 0.341844
vt 0.014612 0.296822
vt 0.010000 0.250000
vt 0.014612 0.203178
vt 0.028269 0.158156
vt 0.050447 0.116663
vt 0.080294 0.080294
vt 0.116663 0.050447
vt 0.203178 0.014612
vt 0.250000 0.010000
vt 0.296822 0.014612
vt 0.341844 0.028269
vt 0.383337 0.050447
vt 0.419706 0.080294
vt 0.449553 0.116663
vt 0.485388 0.203178
vt 0.490000 0.250000
vt 0.485388 0.296822
vt 0.471731 0.341844
vt 0.449553 0.383337
vt 0.419706 0.419706
vt 0.383337 0.449553
vt 0.000000 1.000000
vt 0.750000 0.490000
vt 0.796822 0.485388
vt 0.841844 0.471731
vt 0.883337 0.449553
vt 0.919706 0.419706
vt 0.949553 0.383337
vt 0.971731 0.341844
vt 0.985388 0.296822
vt 0.990000 0.250000
vt 0.985388 0.203178
vt 0.971731 0.158156
vt 0.949553 0.116663
vt 0.919706 0.080294
vt 0.883337 0.050447
vt 0.841844 0.028269
vt 0.750000 0.010000
vt 0.703178 0.014612
vt 0.658156 0.028269
vt 0.616663 0.050447
vt 0.580294 0.080294
vt 0.550447 0.116663
vt 0.528269 0.158156
vt 0.510000 0.250000
vt 0.514612 0.296822
vt 0.528269 0.341844
vt 0.550447 0.383337
vt 0.580294 0.419706
vt 0.616663 0.449553
vt 0.658156 0.471731
s 0
f 78/149/52 79/150/52 77/151/52
f 80/152/53 81/153/53 79/150/53
f 82/154/54 83/155/54 81/153/54
f 84/156/55 85/157/55 83/155/55
f 86/158/56 87/159/56 85/157/56
f 88/160/57 89/161/57 87/159/57
f 90/162/58 91/163/58 89/161/58
f 92/164/59 93/165/59 91/163/59
f 94/166/60 95/167/60 93/165/60
f 96/168/61 97/169/61 95/167/61
f 98/170/62 99/171/62 97/169/62
f 100/172/63 101/173/63 99/171/63
f 102/174/64 103/175/64 101/173/64
f 104/176/65 105/177/65 103/175/65
f 106/178/66 107/179/66 105/177/66
f 108/180/67 109/181/67 107/179/67
f 110/182/68 111/183/68 109/181/68
f 112/184/69 113/185/69 111/183/69
f 114/186/70 115/187/70 113/185/70
f 116/188/71 117/189/71 115/187/71
f 118/190/72 119/191/72 117/189/72
f 120/192/73 121/193/73 119/191/73
f 122/194/74 123/195/74 121/193/74
f 124/196/75 125/197/75 123/195/75
f 126/198/76 127/199/76 125/197/76
f 128/200/77 129/201/77 127/199/77
f 130/202/78 131/203/78 129/201/78
f 132/204/79 133/205/79 131/203/79
f 134/206/80 135/207/80 133/205/80
f 136/208/81 137/209/81 135/207/81
f 114/210/82 98/211/82 82/212/82
f 138/213/83 139/214/83 137/209/83
f 140/215/84 77/216/84 139/214/84
f 107/217/85 123/218/85 139/219/85
f 78/149/52 80/152/52 79/150/52
f 80/152/53 82/154/53 81/153/53
f 82/154/54 84/156/54 83/155/54
f 84/156/55 86/158/55 85/157/55
f 86/158/56 88/160/56 87/159/56
f 88/160/57 90/162/57 89/161/57
f 90/162/58 92/164/58 91/163/58
f 92/164/59 94/166/59 93/165/59
f 94/166/60 96/168/60 95/167/60
f 96/168/61 98/170/61 97/169/61
f 98/170/62 100/172/62 99/171/62
f 100/172/63 102/174/63 101/173/63
f 102/174/64 104/176/64 103/175/64
f 104/176/65 106/178/65 105/177/65
f 106/178/66 108/180/66 107/179/66
f 108/180/67 110/182/67 109/181/67
f 110/182/68 112/184/68 111/183/68
f 112/184/69 114/186/69 113/185/69
f 114/186/70 116/188/70 115/187/70
f 116/188/71 118/190/71 117/189/71
f 118/190/72 120/192/72 119/191/72
f 120/192/73 122/194/73 121/193/73
f 122/194/74 124/196/74 123/195/74
f 124/196/75 126/198/75 125/197/75
f 126/198/76 128/200/76 127/199/76
f 128/200/77 130/202/77 129/201/77
f 130/202/78 132/204/78 131/203/78
f 132/204/79 134/206/79 133/205/79
f 134/206/80 136/208/80 135/207/80
f 136/208/81 138/213/81 137/209/81
f 82/212/86 80/220/86 78/221/86
f 78/221/82 140/222/82 138/223/82
f 138/223/82 136/224/82 134/225/82
f 134/225/82 132/226/82 130/227/82
f 130/227/82 128/228/82 126/229/82
f 126/229/82 124/230/82 122/231/82
f 122/231/82 120/232/82 118/233/82
f 118/233/82 116/234/82 114/210/82
f 114/210/87 112/235/87 110/236/87
f 110/236/82 108/237/82 106/238/82
f 106/238/82 104/239/82 102/240/82
f 102/240/82 100/241/82 98/211/82
f 98/211/82 96/242/82 94/243/82
f 94/243/82 92/244/82 90/245/82
f 90/245/82 88/246/82 86/247/82
f 86/247/82 84/248/82 82/212/82
f 82/212/82 78/221/82 138/223/82
f 138/223/82 134/225/82 130/227/82
f 130/227/82 126/229/82 122/231/82
f 122/231/82 118/233/82 114/210/82
f 114/210/82 110/236/82 106/238/82
f 106/238/82 102/240/82 98/211/82
f 98/211/82 94/243/82 90/245/82
f 90/245/82 86/247/82 82/212/82
f 82/212/82 138/223/82 130/227/82
f 130/227/82 122/231/82 114/210/82
f 114/210/82 106/238/82 98/211/82
f 98/211/82 90/245/82 82/212/82
f 82/212/82 130/227/82 114/210/82
f 138/213/83 140/215/83 139/214/83
f 140/215/84 78/249/84 77/216/84
f 139/219/85 77/250/85 79/251/85
f 79/251/85 81/252/85 83/253/85
f 83/253/88 85/254/88 87/255/88
f 87/255/89 89/256/89 91/257/89
f 91/257/85 93/258/85 95/259/85
f 95/259/89 97/260/89 99/261/89
f 99/261/88 101/262/88 103/263/88
f 103/263/85 105/264/85 107/217/85
f 107/217/85 109/265/85 111/266/85
f 111/266/85 113/267/85 115/268/85
f 115/268/90 117/269/90 119/270/90
f 119/270/91 121/271/91 123/218/91
f 123/218/85 125/272/85 127/273/85
f 127/273/91 129/274/91 131/275/91
f 131/275/90 133/276/90 135/277/90
f 135/277/85 137/278/85 139/219/85
f 139/219/85 79/251/85 83/253/85
f 83/253/85 87/255/85 91/257/85
f 91/257/92 95/259/92 99/261/92
f 99/261/93 103/263/93 107/217/93
f 107/217/85 111/266/85 115/268/85
f 115/268/85 119/270/85 123/218/85
f 123/218/94 127/273/94 131/275/94
f 131/275/95 135/277/95 139/219/95
f 139/219/85 83/253/85 91/257/85
f 91/257/85 99/261/85 107/217/85
f 107/217/85 115/268/85 123/218/85
f 123/218/85 131/275/85 139/219/85
f 139/219/85 91/257/85 107/217/85
o RoomFloor
v -11.000000 -0.250000 -15.000000
v -11.000000 0.000000 -15.000000
v 11.000000 -0.250000 -15.000000
v 11.000000 0.000000 -15.000000
v -11.000000 -0.250000 15.000000
v -11.000000 0.000000 15.000000
v 11.000000 -0.250000 15.000000
v 11.000000 0.000000 15.000000
vn -0.0000 -0.0000 -1.0000
vn 1.0000 -0.0000 -0.0000
vn -0.0000 -0.0000 1.0000
vn -1.0000 -0.0000 -0.0000
vn -0.0000 -1.0000 -0.0000
vn -0.0000 1.0000 -0.0000
vt 0.625000 0.000000
vt 0.375000 0.250000
vt 0.375000 0.000000
vt 0.625000 0.250000
vt 0.375000 0.500000
vt 0.625000 0.500000
vt 0.375000 0.750000
vt 0.625000 0.750000
vt 0.375000 1.000000
vt 0.125000 0.750000
vt 0.125000 0.500000
vt 0.875000 0.500000
vt 0.625000 1.000000
vt 0.875000 0.750000
s 0
f 142/279/96 143/280/96 141/281/96
f 144/282/97 147/283/97 143/280/97
f 148/284/98 145/285/98 147/283/98
f 146/286/99 141/287/99 145/285/99
f 147/283/100 141/288/100 143/289/100
f 144/290/101 146/286/101 148/284/101
f 142/279/96 144/282/96 143/280/96
f 144/282/97 148/284/97 147/283/97
f 148/284/98 146/286/98 145/285/98
f 146/286/99 142/291/99 141/287/99
f 147/283/100 145/285/100 141/288/100
f 144/290/101 142/292/101 146/286/101
o Ceiling
v -11.000000 7.000000 -15.000000
v -11.000000 7.250000 -15.000000
v 11.000000 7.000000 -15.000000
v 11.000000 7.250000 -15.000000
v -11.000000 7.000000 15.000000
v -11.000000 7.250000 15.000000
v 11.000000 7.000000 15.000000
v 11.000000 7.250000 15.000000
vn -0.0000 -0.0000 -1.0000
vn 1.0000 -0.0000 -0.0000
vn -0.0000 -0.0000 1.0000
vn -1.0000 -0.0000 -0.0000
vn -0.0000 -1.0000 -0.0000
vn -0.0000 1.0000 -0.0000
vt 0.625000 0.000000
vt 0.375000 0.250000
vt 0.375000 0.000000
vt 0.625000 0.250000
vt 0.375000 0.500000
vt 0.625000 0.500000
vt 0.375000 0.750000
vt 0.625000 0.750000
vt 0.375000 1.000000
vt 0.125000 0.750000
vt 0.125000 0.500000
vt 0.875000 0.500000
vt 0.625000 1.000000
vt 0.875000 0.750000
s 0
f 150/293/102 151/294/102 149/295/102
f 152/296/103 155/297/103 151/294/103
f 156/298/104 153/299/104 155/297/104
f 154/300/105 149/301/105 153/299/105
f 155/297/106 149/302/106 151/303/106
f 152/304/107 154/300/107 156/298/107
f 150/293/102 152/296/102 151/294/102
f 152/296/103 156/298/103 155/297/103
f 156/298/104 154/300/104 153/299/104
f 154/300/105 150/305/105 149/301/105
f 155/297/106 153/299/106 149/302/106
f 152/304/107 150/306/107 154/300/107
o Wall_Xp
v -11.000000 0.000000 15.000000
v -11.000000 7.000000 15.000000
v 11.000000 0.000000 15.000000
v 11.000000 7.000000 15.000000
v -11.000000 0.000000 15.250000
v -11.000000 7.000000 15.250000
v 11.000000 0.000000 15.250000
v 11.000000 7.000000 15.250000
vn -0.0000 -0.0000 -1.0000
vn 1.0000 -0.0000 -0.0000
vn -0.0000 -0.0000 1.0000
vn -1.0000 -0.0000 -0.0000
vn -0.0000 -1.0000 -0.0000
vn -0.0000 1.0000 -0.0000
vt 0.625000 0.000000
vt 0.375000 0.250000
vt 0.375000 0.000000
vt 0.625000 0.250000
vt 0.375000 0.500000
vt 0.625000 0.500000
vt 0.375000 0.750000
vt 0.625000 0.750000
vt 0.375000 1.000000
vt 0.125000 0.750000
vt 0.125000 0.500000
vt 0.875000 0.500000
vt 0.625000 1.000000
vt 0.875000 0.750000
s 0
f 158/307/108 159/308/108 157/309/108
f 160/310/109 163/311/109 159/308/109
f 164/312/110 161/313/110 163/311/110
f 162/314/111 157/315/111 161/313/111
f 163/311/112 157/316/112 159/317/112
f 160/318/113 162/314/113 164/312/113
f 158/307/108 160/310/108 159/308/108
f 160/310/109 164/312/109 163/311/109
f 164/312/110 162/314/110 161/313/110
f 162/314/111 158/319/111 157/315/111
f 163/311/112 161/313/112 157/316/112
f 160/318/113 158/320/113 162/314/113
o Wall_Xm
v -11.000000 0.000000 -15.250000
v -11.000000 7.000000 -15.250000
v 11.000000 0.000000 -15.250000
v 11.000000 7.000000 -15.250000
v -11.000000 0.000000 -15.000000
v -11.000000 7.000000 -15.000000
v 11.000000 0.000000 -15.000000
v 11.000000 7.000000 -15.000000
vn -0.0000 -0.0000 -1.0000
vn 1.0000 -0.0000 -0.0000
vn -0.0000 -0.0000 1.0000
vn -1.0000 -0.0000 -0.0000
vn -0.0000 -1.0000 -0.0000
vn -0.0000 1.0000 -0.0000
vt 0.625000 0.000000
vt 0.375000 0.250000
vt 0.375000 0.000000
vt 0.625000 0.250000
vt 0.375000 0.500000
vt 0.625000 0.500000
vt 0.375000 0.750000
vt 0.625000 0.750000
vt 0.375000 1.000000
vt 0.125000 0.750000
vt 0.125000 0.500000
vt 0.875000 0.500000
vt 0.625000 1.000000
vt 0.875000 0.750000
s 0
f 166/321/114 167/322/114 165/323/114
f 168/324/115 171/325/115 167/322/115
f 172/326/116 169/327/116 171/325/116
f 170/328/117 165/329/117 169/327/117
f 171/325/118 165/330/118 167/331/118
f 168/332/119 170/328/119 172/326/119
f 166/321/114 168/324/114 167/322/114
f 168/324/115 172/326/115 171/325/115
f 172/326/116 170/328/116 169/327/116
f 170/328/117 166/333/117 165/329/117
f 171/325/118 169/327/118 165/330/118
f 168/332/119 166/334/119 170/328/119
o Wall_Yp
v 11.000000 0.000000 -15.000000
v 11.000000 7.000000 -15.000000
v 11.250000 0.000000 -15.000000
v 11.250000 7.000000 -15.000000
v 11.000000 0.000000 15.000000
v 11.000000 7.000000 15.000000
v 11.250000 0.000000 15.000000
v 11.250000 7.000000 15.000000
vn -0.0000 -0.0000 -1.0000
vn 1.0000 -0.0000 -0.0000
vn -0.0000 -0.0000 1.0000
vn -1.0000 -0.0000 -0.0000
vn -0.0000 -1.0000 -0.0000
vn -0.0000 1.0000 -0.0000
vt 0.625000 0.000000
vt 0.375000 0.250000
vt 0.375000 0.000000
vt 0.625000 0.250000
vt 0.375000 0.500000
vt 0.625000 0.500000
vt 0.375000 0.750000
vt 0.625000 0.750000
vt 0.375000 1.000000
vt 0.125000 0.750000
vt 0.125000 0.500000
vt 0.875000 0.500000
vt 0.625000 1.000000
vt 0.875000 0.750000
s 0
f 174/335/120 175/336/120 173/337/120
f 176/338/121 179/339/121 175/336/121
f 180/340/122 177/341/122 179/339/122
f 178/342/123 173/343/123 177/341/123
f 179/339/124 173/344/124 175/345/124
f 176/346/125 178/342/125 180/340/125
f 174/335/120 176/338/120 175/336/120
f 176/338/121 180/340/121 179/339/121
f 180/340/122 178/342/122 177/341/122
f 178/342/123 174/347/123 173/343/123
f 179/339/124 177/341/124 173/344/124
f 176/346/125 174/348/125 178/342/125
o Wall_Ym
v -11.250000 0.000000 -15.000000
v -11.250000 7.000000 -15.000000
v -11.000000 0.000000 -15.000000
v -11.000000 7.000000 -15.000000
v -11.250000 0.000000 15.000000
v -11.250000 7.000000 15.000000
v -11.000000 0.000000 15.000000
v -11.000000 7.000000 15.000000
vn -0.0000 -0.0000 -1.0000
vn 1.0000 -0.0000 -0.0000
vn -0.0000 -0.0000 1.0000
vn -1.0000 -0.0000 -0.0000
vn -0.0000 -1.0000 -0.0000
vn -0.0000 1.0000 -0.0000
vt 0.625000 0.000000
vt 0.375000 0.250000
vt 0.375000 0.000000
vt 0.625000 0.250000
vt 0.375000 0.500000
vt 0.625000 0.500000
vt 0.375000 0.750000
vt 0.625000 0.750000
vt 0.375000 1.000000
vt 0.125000 0.750000
vt 0.125000 0.500000
vt 0.875000 0.500000
vt 0.625000 1.000000
vt 0.875000 0.750000
s 0
f 182/349/126 183/350/126 181/351/126
f 184/352/127 187/353/127 183/350/127
f 188/354/128 185/355/128 187/353/128
f 186/356/129 181/357/129 185/355/129
f 187/353/130 181/358/130 183/359/130
f 184/360/131 186/356/131 188/354/131
f 182/349/126 184/352/126 183/350/126
f 184/352/127 188/354/127 187/353/127
f 188/354/128 186/356/128 185/355/128
f 186/356/129 182/361/129 181/357/129
f 187/353/130 185/355/130 181/358/130
f 184/360/131 182/362/131 186/356/131
